<?xml version="1.0"?>
<svg width="128" height="28" xmlns="http://www.w3.org/2000/svg" xmlns:svg="http://www.w3.org/2000/svg">
 <!-- <path d="M140.828 2.79269H140.375V24.9671H140.828V2.79269Z" fill="black"/> -->
 <g class="layer">
  <title>Layer 1</title>
  <path d="m50.01,3.21l-7.62,0c-0.13,0 -0.25,0.09 -0.29,0.21l-0.02,0.09l-2.25,12.39l-0.06,0l-2.25,-12.39c0,-0.03 -0.01,-0.06 -0.02,-0.09c-0.04,-0.12 -0.15,-0.21 -0.28,-0.21l-7.62,0c-0.17,0 -0.3,0.13 -0.3,0.3l0,20.82c0,0.16 0.13,0.3 0.3,0.3l4.73,0c0.17,0 0.31,-0.14 0.31,-0.3l0,-15.66l0.06,0l3,15.71l0,0.01c0.03,0.14 0.15,0.24 0.29,0.24l3.62,0c0.14,0 0.25,-0.09 0.29,-0.21l0.01,-0.08l2.99,-15.67l0.07,0l0,15.65c0,0.17 0.13,0.3 0.3,0.3l4.73,0c0.17,0 0.31,-0.13 0.31,-0.3l0,-20.81c0,-0.17 -0.14,-0.3 -0.31,-0.3" fill="black" id="svg_24"/>
  <path d="m93.15,3.21l-5.1,0c-0.17,0 -0.31,0.13 -0.31,0.3l0,15.15c0,1.05 -0.15,1.74 -0.46,2.09c-0.31,0.35 -0.72,0.52 -1.25,0.52c-0.53,0 -0.96,-0.17 -1.26,-0.52c-0.31,-0.35 -0.46,-1.04 -0.46,-2.09l0,-15.15c0,-0.17 -0.14,-0.3 -0.31,-0.3l-5.1,0c-0.17,0 -0.31,0.13 -0.31,0.3l0,13.74c0,1.5 0.17,2.76 0.49,3.75c0.33,1 0.8,1.81 1.43,2.41c0.62,0.6 1.4,1.01 2.34,1.23c0.93,0.22 1.98,0.32 3.18,0.32c1.19,0 2.27,-0.1 3.19,-0.32c0.92,-0.22 1.69,-0.63 2.32,-1.23c0.62,-0.6 1.1,-1.41 1.42,-2.41c0.33,-0.99 0.5,-2.25 0.5,-3.75l0,-13.74c0,-0.17 -0.14,-0.3 -0.31,-0.3" fill="black" id="svg_25"/>
  <path d="m73.86,13.32c-0.69,-0.5 -1.44,-0.9 -2.24,-1.22c-0.8,-0.31 -1.56,-0.61 -2.25,-0.91c-0.7,-0.3 -1.28,-0.66 -1.74,-1.07c-0.46,-0.41 -0.69,-0.96 -0.69,-1.66c0,-0.49 0.14,-0.92 0.43,-1.31c0.29,-0.39 0.74,-0.58 1.36,-0.58c0.56,0 0.97,0.22 1.24,0.67c0.27,0.45 0.4,0.99 0.4,1.63l0,0.22c0,0.16 0.14,0.3 0.31,0.3l4.72,0c0.17,0 0.3,-0.13 0.31,-0.29l0,-0.03c-0.05,-2.13 -0.61,-3.71 -1.67,-4.71c-1.12,-1.05 -2.93,-1.57 -5.43,-1.57c-2.5,0 -4.23,0.57 -5.41,1.71c-1.2,1.14 -1.79,2.8 -1.79,4.98c0,1.26 0.22,2.28 0.66,3.06c0.45,0.78 1,1.41 1.67,1.89c0.66,0.48 1.39,0.87 2.17,1.17c0.78,0.3 1.5,0.59 2.17,0.88c0.66,0.29 1.22,0.64 1.66,1.05c0.44,0.41 0.66,0.97 0.66,1.67c0,0.58 -0.16,1.07 -0.48,1.47c-0.32,0.4 -0.77,0.6 -1.37,0.6c-0.55,0 -1.01,-0.19 -1.35,-0.56c-0.35,-0.36 -0.53,-1.01 -0.53,-1.93l0,-0.21c0,-0.17 -0.13,-0.3 -0.3,-0.3l-4.92,0c-0.17,0 -0.31,0.13 -0.31,0.3l0,0.45c0,1.12 0.17,2.06 0.49,2.82c0.33,0.76 0.81,1.38 1.43,1.85c0.63,0.47 1.4,0.8 2.31,0.99c0.91,0.19 1.96,0.28 3.15,0.28c2.52,0 4.45,-0.51 5.78,-1.54c1.34,-1.03 2,-2.69 2,-4.97c0,-1.3 -0.23,-2.35 -0.69,-3.17c-0.46,-0.81 -1.04,-1.46 -1.74,-1.96" fill="black" id="svg_26"/>
  <path d="m58.38,3.21l-4.92,0c-0.17,0 -0.3,0.13 -0.3,0.3l0,4.8c0,0.17 0.13,0.3 0.3,0.3l4.92,0c0.17,0 0.31,-0.13 0.31,-0.3l0,-4.8c0,-0.17 -0.14,-0.3 -0.31,-0.3" fill="black" id="svg_27"/>
  <path d="m58.38,10.51l-4.92,0c-0.17,0 -0.3,0.13 -0.3,0.3l0,13.52c0,0.16 0.13,0.3 0.3,0.3l4.92,0c0.17,0 0.31,-0.14 0.31,-0.3l0,-13.52c0,-0.16 -0.14,-0.3 -0.31,-0.3" fill="black" id="svg_28"/>
  <path d="m117.09,3.21l-7.62,0c-0.13,0 -0.25,0.09 -0.29,0.21l-0.02,0.09l-2.25,12.39l-0.06,0l-2.25,-12.39c0,-0.03 -0.01,-0.06 -0.02,-0.09c-0.04,-0.12 -0.15,-0.21 -0.28,-0.21l-7.62,0c-0.17,0 -0.3,0.13 -0.3,0.3l0,20.82c0,0.16 0.13,0.3 0.3,0.3l4.73,0c0.17,0 0.31,-0.14 0.31,-0.3l0,-15.66l0.06,0l3,15.71l0,0.01c0.03,0.14 0.15,0.24 0.3,0.24l3.62,0c0.13,0 0.24,-0.09 0.28,-0.21l0.02,-0.08l2.99,-15.67l0.06,0l0,15.65c0,0.17 0.14,0.3 0.3,0.3l4.74,0c0.16,0 0.3,-0.13 0.3,-0.3l0,-20.81c0,-0.17 -0.14,-0.3 -0.3,-0.3" fill="black" id="svg_29"/>
  <path d="m125.46,3.21l-4.92,0c-0.17,0 -0.31,0.13 -0.31,0.3l0,4.8c0,0.17 0.14,0.3 0.31,0.3l4.92,0c0.17,0 0.3,-0.13 0.3,-0.3l0,-4.8c0,-0.17 -0.14,-0.3 -0.3,-0.3" fill="black" id="svg_30"/>
  <path d="m125.46,10.51l-4.92,0c-0.17,0 -0.31,0.13 -0.31,0.3l0,13.52c0,0.16 0.14,0.3 0.31,0.3l4.92,0c0.17,0 0.3,-0.14 0.3,-0.3l0,-13.52c0,-0.16 -0.14,-0.3 -0.3,-0.3" fill="black" id="svg_31"/>
  <path d="m8.97,27.84l5.96,-4.54l0,-2.62l1.03,1.9l6.06,-4.64l0,-10.58l-8.97,-7.36l-2.47,1.9l0,9.19l-8.11,-3.05l-2.47,1.8l0,10.66l8.97,7.34z" fill="black" id="svg_32"/>
  <path d="m0.74,10.82l0,9.41l7.79,6.43l0,-9.4l-7.79,-6.44z" fill="white" id="svg_33"/>
  <path d="m0.99,10.02l1.61,-1.24l11.26,4.21l-4.89,3.71l-7.98,-6.68z" fill="#0F218B" id="svg_34"/>
  <path d="m9.24,17.38l4.93,-3.71l0,9.34l-4.93,3.73l0,-9.36z" fill="#FFCC00" id="svg_35"/>
  <path d="m13.07,0.91l-1.67,1.28l4.75,9.07l5.01,-3.71l-8.09,-6.64z" fill="#0F218B" id="svg_36"/>
  <path d="m11.32,3.59l4.33,8.29l0,8.58l-0.74,-1.45l0,-6.33l-3.59,-1.36l0,-7.73z" fill="white" id="svg_37"/>
  <path d="m21.28,8.29l0,9.34l-4.89,3.78l0,-9.41l4.89,-3.71z" fill="#FFCC00" id="svg_38"/>
 </g>
</svg>