<svg width="346" height="40" viewBox="0 0 298 28" fill="none" xmlns="http://www.w3.org/2000/svg">
<path d="M160.929 8.28806H159.242L159.219 8.33435C158.851 9.03638 158.443 9.80013 158.034 10.5664C157.591 11.3919 157.152 12.2148 156.763 12.9554C156.545 12.5337 156.187 11.8625 155.781 11.0962C155.292 10.1833 154.742 9.14953 154.318 8.33435L154.292 8.28806H152.495L155.843 14.2977C155.879 14.3492 155.907 14.4418 155.907 14.5266V18.5665H157.486V14.5163C157.486 14.4109 157.499 14.3595 157.54 14.3003L160.857 8.41664L160.929 8.28549V8.28806Z" fill="black"/>
<path d="M164.277 10.7825C161.881 10.7825 160.724 12.7317 160.724 14.6655C160.724 17.1882 162.069 18.6951 164.182 18.6951C166.296 18.6951 167.651 17.1753 167.651 14.6295C167.651 12.2559 166.36 10.7825 164.277 10.7825ZM166.075 14.6346C166.075 15.8972 165.759 17.4016 164.257 17.4016C163.082 17.4016 162.297 16.3704 162.297 14.6449C162.297 13.0351 163.066 12.0759 164.213 12.0759C165.36 12.0759 166.075 13.0094 166.075 14.6346Z" fill="black"/>
<path d="M175.325 16.3498V10.929H173.771V15.1875C173.771 16.607 173.213 17.3579 172.156 17.3579C171.282 17.3579 170.876 16.8539 170.876 15.7764V10.929H169.346V16.031C169.346 18.3505 170.832 18.6951 171.719 18.6951C172.606 18.6951 173.375 18.3376 173.8 17.6793C173.807 18.0162 173.823 18.3196 173.861 18.4945L173.877 18.5639H175.358L175.353 18.4739C175.337 18.1113 175.325 17.3142 175.325 16.3498V16.3498Z" fill="black"/>
<path d="M179.118 12.0965C179.115 11.6388 179.108 11.2839 179.084 11.0087L179.079 10.929H177.57L177.575 11.0216C177.596 11.3893 177.606 12.2405 177.606 13.5494V18.5665H179.141V14.8635C179.141 13.2126 179.866 12.4231 181.419 12.3819H181.504V10.7979H181.414C180.404 10.8107 179.573 11.289 179.118 12.0991V12.0965Z" fill="black"/>
<path d="M240.716 16.3498V10.929H239.163V15.1875C239.163 16.607 238.605 17.3579 237.548 17.3579C236.674 17.3579 236.267 16.8539 236.267 15.7764V10.929H234.737V16.031C234.737 18.3505 236.224 18.6951 237.111 18.6951C237.998 18.6951 238.767 18.3376 239.191 17.6793C239.199 18.0162 239.214 18.3196 239.253 18.4945L239.268 18.5639H240.75L240.744 18.4739C240.729 18.1113 240.716 17.3142 240.716 16.3498V16.3498Z" fill="black"/>
<path d="M244.507 12.0965C244.504 11.6388 244.497 11.2839 244.474 11.0087L244.468 10.929H242.959L242.964 11.0216C242.985 11.3893 242.995 12.2405 242.995 13.5494V18.5665H244.53V14.8635C244.53 13.2126 245.255 12.4231 246.809 12.3819H246.893V10.7979H246.803C245.793 10.8107 244.962 11.289 244.507 12.0991V12.0965Z" fill="black"/>
<path d="M185.56 9.66126H188.476V18.5665H190.07V9.66126H192.991V8.28806H185.56V9.66126Z" fill="black"/>
<path d="M195.766 8.28806H194.228V10.0907H195.766V8.28806Z" fill="black"/>
<path d="M195.766 11.4973H194.228V18.5665H195.766V11.4973Z" fill="black"/>
<path d="M205.702 10.7825C204.602 10.7825 203.864 11.3456 203.504 11.9268C203.175 11.1759 202.516 10.7825 201.59 10.7825C200.549 10.7825 199.937 11.2608 199.587 11.7468C199.58 11.4793 199.562 11.1579 199.544 11.0062L199.533 10.929H198.037L198.042 11.0216C198.06 11.4742 198.07 12.2302 198.07 13.336V18.5639H199.592V14.2386C199.592 12.8783 200.135 12.1299 201.12 12.1299C202.164 12.1299 202.321 13.0454 202.321 13.5906V18.5639H203.83V14.1203C203.83 13.3746 204.023 12.1248 205.319 12.1248C206.14 12.1248 206.538 12.6262 206.538 13.6574V18.5665H208.053V13.426C208.053 11.127 206.579 10.7825 205.702 10.7825V10.7825Z" fill="black"/>
<path d="M213.083 10.7825C210.622 10.7825 209.75 12.9091 209.75 14.7298C209.75 17.255 210.938 18.7054 213.011 18.7054C215.083 18.7054 215.883 17.237 216.12 16.3601L216.151 16.2495H214.633L214.613 16.3061C214.348 17.0493 213.844 17.4119 213.07 17.4119C212.607 17.4119 212.226 17.2627 211.933 16.967C211.54 16.5736 211.319 15.9152 211.308 15.1078H216.212L216.22 15.0306C216.228 14.9612 216.233 14.4855 216.233 14.4469C216.233 12.1171 215.083 10.7825 213.08 10.7825H213.083ZM213.054 12.0425C214.335 12.0425 214.667 13.066 214.716 13.966H211.347C211.432 13.066 211.802 12.0425 213.054 12.0425Z" fill="black"/>
<path d="M217.791 16.3807C217.704 18.0316 217.179 19.5745 216.871 20.1583L216.801 20.2869H218.097L218.123 20.2509C218.75 19.3585 219.213 17.8079 219.28 16.391L219.285 16.2984H217.796L217.791 16.3807Z" fill="black"/>
<path d="M228.633 8.1492C225.555 8.1492 224.176 10.7696 224.176 13.3694C224.176 16.6661 225.837 18.7131 228.509 18.7131C231.181 18.7131 232.958 16.6661 232.958 13.3668C232.958 10.0676 231.302 8.1492 228.633 8.1492V8.1492ZM231.343 13.3746C231.343 14.8661 230.983 17.3707 228.581 17.3707C226.542 17.3707 225.812 15.2955 225.812 13.3514C225.812 10.9342 226.846 9.49154 228.576 9.49154C230.307 9.49154 231.343 10.9085 231.343 13.3746V13.3746Z" fill="black"/>
<path d="M255.536 8.28806H251.995V18.5665H253.582V14.3029H255.369C257.611 14.3029 258.949 13.1483 258.949 11.2145C258.949 9.43497 257.609 8.28549 255.536 8.28549V8.28806ZM257.334 11.2453C257.334 12.4282 256.688 12.9785 255.305 12.9785H253.582V9.61498H255.328C256.076 9.61498 257.334 9.82841 257.334 11.2453V11.2453Z" fill="black"/>
<path d="M261.862 12.0965C261.859 11.6388 261.852 11.2839 261.829 11.0087L261.823 10.929H260.314L260.319 11.0216C260.34 11.3893 260.35 12.2405 260.35 13.5494V18.5665H261.885V14.8635C261.885 13.2126 262.61 12.4231 264.164 12.3819H264.248V10.7979H264.158C263.148 10.8107 262.317 11.289 261.862 12.0991V12.0965Z" fill="black"/>
<path d="M267.365 11.4973H265.83V18.5665H267.365V11.4973Z" fill="black"/>
<path d="M267.365 8.28806H265.83V10.0907H267.365V8.28806Z" fill="black"/>
<path d="M272.611 10.7825C270.212 10.7825 269.14 12.7317 269.14 14.6655C269.14 17.1882 270.402 18.6951 272.516 18.6951C274.63 18.6951 275.983 17.1753 275.983 14.6295C275.983 12.2559 274.692 10.7825 272.611 10.7825V10.7825ZM274.409 14.6346C274.409 15.8972 274.092 17.4016 272.588 17.4016C271.413 17.4016 270.711 16.3704 270.711 14.6449C270.711 13.0351 271.397 12.0759 272.544 12.0759C273.691 12.0759 274.406 13.0094 274.406 14.6346H274.409Z" fill="black"/>
<path d="M279.066 12.0965C279.061 11.5925 279.05 11.2633 279.032 11.0087L279.027 10.929H277.518L277.523 11.0216C277.541 11.3765 277.551 12.2019 277.551 13.5494V18.5665H279.089V14.8635C279.089 13.2126 279.814 12.4231 281.365 12.3819H281.449V10.7979H281.359C280.349 10.8107 279.518 11.289 279.066 12.0991V12.0965Z" fill="black"/>
<path d="M284.53 11.4973H282.992V18.5665H284.53V11.4973Z" fill="black"/>
<path d="M284.53 8.28806H282.992V10.0907H284.53V8.28806Z" fill="black"/>
<path d="M288.737 8.78951H287.21V10.929H286.042V12.2071H287.21V16.8513C287.21 18.1293 287.719 18.6514 288.966 18.6514C289.164 18.6514 289.666 18.6385 290.016 18.5176L290.075 18.4971V17.3296L289.972 17.3476C289.802 17.3784 289.625 17.3939 289.434 17.3939C288.889 17.3939 288.74 17.2267 288.74 16.625V12.2071H290.211V10.929H288.74V8.78951H288.737Z" fill="black"/>
<path d="M296.421 10.929L296.401 10.9907C295.534 13.786 294.927 15.9075 294.657 16.8899C294.469 16.1081 294.066 14.8223 293.405 12.7162C293.24 12.1917 293.063 11.6182 292.865 10.9907L292.844 10.929H291.196L293.878 18.7311C293.569 19.6697 293.302 20.2817 292.518 20.2817C292.327 20.2817 292.05 20.2663 291.888 20.238L291.785 20.22V21.5495L291.854 21.5623C292.05 21.6009 292.381 21.6215 292.533 21.6215C293.847 21.6215 294.57 21.2203 295.364 18.8339L297.959 11.0422L297.998 10.9265H296.419L296.421 10.929Z" fill="black"/>
<path d="M50.006 3.21185H42.3865C42.2553 3.21185 42.1422 3.29671 42.101 3.415L42.0805 3.51014L39.8329 15.8998H39.7712L37.5211 3.51014C37.5211 3.47671 37.5134 3.44586 37.5031 3.415C37.462 3.29928 37.3514 3.21185 37.2177 3.21185H29.6008C29.4311 3.21185 29.2974 3.34299 29.2974 3.51014V24.3267C29.2974 24.4913 29.4311 24.625 29.6008 24.625H34.3324C34.4996 24.625 34.6359 24.4939 34.6359 24.3267V8.66865H34.6976L37.696 24.3807V24.3936C37.7294 24.5273 37.8477 24.625 37.9943 24.625H41.6099C41.7462 24.625 41.8593 24.5376 41.9005 24.4193L41.9133 24.3422L44.904 8.66608H44.9657V24.3242C44.9657 24.4887 45.1046 24.6225 45.2718 24.6225H50.0034C50.1705 24.6225 50.3068 24.4913 50.3068 24.3242V3.50757C50.3068 3.34042 50.1705 3.20927 50.0034 3.20927" fill="black"/>
<path d="M93.1514 3.21185H88.0469C87.8797 3.21185 87.7434 3.34299 87.7434 3.51014V18.6642C87.7434 19.7057 87.5891 20.3974 87.2831 20.7472C86.9745 21.0969 86.5554 21.2718 86.0256 21.2718C85.4959 21.2718 85.0742 21.0969 84.7707 20.7472C84.4621 20.4 84.3078 19.7057 84.3078 18.6642V3.50757C84.3078 3.34042 84.1741 3.20927 84.0044 3.20927H78.8973C78.7302 3.20927 78.5913 3.34042 78.5913 3.50757V17.255C78.5913 18.7542 78.7559 20.0066 79.0825 21.0043C79.4091 22.0046 79.8848 22.807 80.5122 23.4061C81.1346 24.0053 81.9137 24.4167 82.8472 24.6353C83.7781 24.8565 84.835 24.9645 86.0256 24.9645C87.2162 24.9645 88.2989 24.8565 89.2195 24.6353C90.1401 24.4167 90.9115 24.0053 91.5364 23.4061C92.1613 22.807 92.6371 22.0046 92.9636 21.0043C93.2928 20.0066 93.4574 18.7542 93.4574 17.255V3.50757C93.4574 3.34042 93.3185 3.20927 93.1514 3.20927" fill="black"/>
<path d="M73.8645 13.3206C73.1676 12.8191 72.4167 12.4154 71.6169 12.1042C70.8172 11.7931 70.0637 11.4871 69.3694 11.1862C68.67 10.8879 68.0914 10.533 67.6285 10.1216C67.1656 9.71012 66.9367 9.15724 66.9367 8.45521C66.9367 7.97433 67.0782 7.53974 67.3713 7.14887C67.6593 6.758 68.1119 6.56513 68.7317 6.56513C69.2897 6.56513 69.6986 6.78886 69.9686 7.24145C70.2386 7.69147 70.3697 8.23406 70.3697 8.87437V9.08781C70.3697 9.25239 70.506 9.38611 70.6758 9.38611H75.4048C75.5694 9.38611 75.7005 9.2601 75.7082 9.10067V9.07238C75.6594 6.93543 75.1014 5.36422 74.0368 4.3639C72.9181 3.31471 71.1078 2.79012 68.6082 2.79012C66.1087 2.79012 64.3832 3.361 63.1952 4.50019C62.0045 5.63938 61.4105 7.30059 61.4105 9.47868C61.4105 10.7413 61.6291 11.7596 62.0714 12.5388C62.5163 13.318 63.0691 13.948 63.7352 14.4289C64.4038 14.9098 65.1264 15.2981 65.9056 15.5989C66.6873 15.8972 67.4099 16.193 68.0759 16.4836C68.7445 16.7741 69.3 17.1239 69.7397 17.5327C70.182 17.9416 70.4032 18.4971 70.4032 19.1965C70.4032 19.7777 70.2437 20.2689 69.9249 20.6674C69.6034 21.066 69.1483 21.2666 68.5517 21.2666C67.9962 21.2666 67.5436 21.084 67.1965 20.7137C66.8467 20.346 66.6719 19.7005 66.6719 18.7799V18.5665C66.6719 18.4019 66.5356 18.2682 66.3684 18.2682H61.4491C61.2819 18.2682 61.1431 18.4019 61.1431 18.5665V19.0191C61.1431 20.1403 61.3076 21.0789 61.6342 21.8426C61.9608 22.6012 62.4391 23.2158 63.064 23.6864C63.6889 24.157 64.4578 24.4887 65.3707 24.679C66.281 24.8693 67.3328 24.9645 68.5234 24.9645C71.0435 24.9645 72.9721 24.4502 74.3042 23.419C75.6362 22.3878 76.3048 20.7317 76.3048 18.4508C76.3048 17.1496 76.0734 16.0952 75.6105 15.2826C75.1477 14.4726 74.5665 13.8169 73.8696 13.318" fill="black"/>
<path d="M58.379 3.21185H53.4597C53.2925 3.21185 53.1562 3.34299 53.1562 3.51014V8.31378C53.1562 8.47836 53.2925 8.61208 53.4597 8.61208H58.379C58.5488 8.61208 58.6851 8.48093 58.6851 8.31378V3.50757C58.6851 3.34042 58.5488 3.20927 58.379 3.20927" fill="black"/>
<path d="M58.379 10.5099H53.4597C53.2925 10.5099 53.1562 10.6436 53.1562 10.8056V24.3267C53.1562 24.4913 53.2925 24.625 53.4597 24.625H58.379C58.5488 24.625 58.6851 24.4939 58.6851 24.3267V10.8082C58.6851 10.6462 58.5488 10.5124 58.379 10.5124" fill="black"/>
<path d="M117.087 3.21185H109.468C109.337 3.21185 109.223 3.29671 109.182 3.415L109.164 3.51014L106.912 15.8998H106.852L104.6 3.51014C104.6 3.47671 104.595 3.44586 104.584 3.415C104.543 3.29928 104.433 3.21185 104.299 3.21185H96.682C96.5123 3.21185 96.376 3.34299 96.376 3.51014V24.3267C96.376 24.4913 96.5123 24.625 96.682 24.625H101.414C101.583 24.625 101.717 24.4939 101.717 24.3267V8.66865H101.779L104.777 24.3807V24.3936C104.811 24.5273 104.931 24.625 105.075 24.625H108.696C108.833 24.625 108.943 24.5376 108.982 24.4193L108.997 24.3422L111.988 8.66608H112.049V24.3242C112.049 24.4887 112.186 24.6225 112.353 24.6225H117.087C117.254 24.6225 117.391 24.4913 117.391 24.3242V3.50757C117.391 3.34042 117.254 3.20927 117.087 3.20927" fill="black"/>
<path d="M125.458 3.21185H120.538C120.371 3.21185 120.235 3.34299 120.235 3.51014V8.31378C120.235 8.47836 120.371 8.61208 120.538 8.61208H125.458C125.625 8.61208 125.761 8.48093 125.761 8.31378V3.50757C125.761 3.34042 125.622 3.20927 125.458 3.20927" fill="black"/>
<path d="M125.458 10.5099H120.538C120.371 10.5099 120.235 10.6436 120.235 10.8056V24.3267C120.235 24.4913 120.371 24.625 120.538 24.625H125.458C125.625 24.625 125.761 24.4939 125.761 24.3267V10.8082C125.761 10.6462 125.622 10.5124 125.458 10.5124" fill="black"/>
<path d="M8.96952 27.8395L14.9303 23.3033V20.6829L15.959 22.5781L22.0226 17.9365L22.0201 7.35974L13.0506 0L10.5767 1.89779V11.0885L2.47382 8.04377L0 9.83613V20.4977L8.96952 27.8395Z" fill="black"/>
<path d="M0.743164 10.8236V20.2277L8.53492 26.6617V17.2576L0.743164 10.8236Z" fill="white"/>
<path d="M0.987305 10.0213L2.59709 8.78437L13.8553 12.9888L8.96936 16.7021L0.987305 10.0213Z" fill="#0F218B"/>
<path d="M9.23682 17.3836L14.1665 13.6729V23.0127L9.23682 26.744V17.3836Z" fill="#FFCC00"/>
<path d="M13.0737 0.907745L11.4048 2.1858L16.1467 11.2582L21.1561 7.54745L13.0737 0.907745Z" fill="#0F218B"/>
<path d="M11.3198 3.5873L15.6503 11.8779V20.4566L14.9071 19.0139V12.6828L11.3198 11.3199V3.5873Z" fill="white"/>
<path d="M21.2796 8.28806V17.633L16.3911 21.4055V12.0014L21.2796 8.28806Z" fill="#FFCC00"/>
<path d="M140.828 2.79269H140.375V24.9671H140.828V2.79269Z" fill="black"/>
</svg>
