<svg xmlns="http://www.w3.org/2000/svg" width="32" height="33" viewBox="0 0 32 33">
    <g fill="none" fill-rule="evenodd">
        <path d="M0 .322h32v32.356H0z"></path>
        <path d="m9.5 15.992-3.5.002c.168-4.614 3.78-8.671 8-9.607-2.722 1.9-4.353 5.906-4.5 9.605zm0 1.016L6 17.006c.168 4.614 3.78 8.671 8 9.607-2.722-1.9-4.353-5.906-4.5-9.605zm13 0 3.5-.002c-.168 4.614-3.78 8.671-8 9.607 2.722-1.9 4.353-5.906 4.5-9.605zm0-1.016 3.5.002c-.168-4.614-3.78-8.671-8-9.607 2.722 1.9 4.353 5.906 4.5 9.605zm-6 .002V6.39c2.788 1.659 4.819 5.575 4.996 9.605H16.5zm0 10.617v-9.605h5c-.19 3.82-2.257 7.801-5 9.605zm-1.005-9.605v9.605c-2.74-1.803-4.804-5.785-4.995-9.605h4.995zm.001-10.617v9.605H10.5c.177-4.03 2.208-7.946 4.996-9.605zM5 16.499c0 6.134 4.935 11.123 11 11.123 6.066 0 11-4.99 11-11.122 0-6.133-4.934-11.122-11-11.122-6.065 0-11 4.99-11 11.122z" fill="#000"></path>
    </g>
</svg>